<?xml version="1.0" encoding="utf-8"?>
<!-- Generator: Adobe Illustrator 24.3.0, SVG Export Plug-In . SVG Version: 6.00 Build 0)  -->
<svg version="1.1" id="Layer_1" xmlns="http://www.w3.org/2000/svg" xmlns:xlink="http://www.w3.org/1999/xlink" x="0px" y="0px"
	 viewBox="0 0 213 67" style="enable-background:new 0 0 213 67;" xml:space="preserve">
<style type="text/css">
	.st0{opacity:0.98;fill-rule:evenodd;clip-rule:evenodd;fill:#FEFFFE;enable-background:new    ;}
	.st1{opacity:0.984;fill-rule:evenodd;clip-rule:evenodd;fill:#FEFFFE;enable-background:new    ;}
	.st2{opacity:0.93;fill-rule:evenodd;clip-rule:evenodd;fill:#FEFFFE;enable-background:new    ;}
	.st3{opacity:0.96;fill-rule:evenodd;clip-rule:evenodd;fill:#FEFFFE;enable-background:new    ;}
	.st4{opacity:0.856;fill-rule:evenodd;clip-rule:evenodd;fill:#FEFFFE;enable-background:new    ;}
	.st5{opacity:0.97;fill-rule:evenodd;clip-rule:evenodd;fill:#FEFFFE;enable-background:new    ;}
	.st6{opacity:0.964;fill-rule:evenodd;clip-rule:evenodd;fill:#FEFFFE;enable-background:new    ;}
	.st7{opacity:0.961;fill-rule:evenodd;clip-rule:evenodd;fill:#FEFFFE;enable-background:new    ;}
	.st8{opacity:0.963;fill-rule:evenodd;clip-rule:evenodd;fill:#FEFFFE;enable-background:new    ;}
	.st9{opacity:0.944;fill-rule:evenodd;clip-rule:evenodd;fill:#FEFFFE;enable-background:new    ;}
	.st10{opacity:0.968;fill-rule:evenodd;clip-rule:evenodd;fill:#FEFFFE;enable-background:new    ;}
	.st11{opacity:0.902;fill-rule:evenodd;clip-rule:evenodd;fill:#FEFFFE;enable-background:new    ;}
	.st12{opacity:0.849;fill-rule:evenodd;clip-rule:evenodd;fill:#FEFFFE;enable-background:new    ;}
	.st13{opacity:0.894;fill-rule:evenodd;clip-rule:evenodd;fill:#FEFFFE;enable-background:new    ;}
	.st14{opacity:0.896;fill-rule:evenodd;clip-rule:evenodd;fill:#FEFFFE;enable-background:new    ;}
	.st15{opacity:0.884;fill-rule:evenodd;clip-rule:evenodd;fill:#FEFFFE;enable-background:new    ;}
	.st16{opacity:0.883;fill-rule:evenodd;clip-rule:evenodd;fill:#FEFFFE;enable-background:new    ;}
	.st17{opacity:0.9;fill-rule:evenodd;clip-rule:evenodd;fill:#FEFFFE;enable-background:new    ;}
	.st18{opacity:0.891;fill-rule:evenodd;clip-rule:evenodd;fill:#FEFFFE;enable-background:new    ;}
	.st19{opacity:0.903;fill-rule:evenodd;clip-rule:evenodd;fill:#FEFFFE;enable-background:new    ;}
	.st20{opacity:0.895;fill-rule:evenodd;clip-rule:evenodd;fill:#FEFFFE;enable-background:new    ;}
	.st21{opacity:0.888;fill-rule:evenodd;clip-rule:evenodd;fill:#FEFFFE;enable-background:new    ;}
	.st22{opacity:0.899;fill-rule:evenodd;clip-rule:evenodd;fill:#FEFFFE;enable-background:new    ;}
	.st23{opacity:0.898;fill-rule:evenodd;clip-rule:evenodd;fill:#FEFFFE;enable-background:new    ;}
	.st24{opacity:0.897;fill-rule:evenodd;clip-rule:evenodd;fill:#FEFFFE;enable-background:new    ;}
	.st25{opacity:0.889;fill-rule:evenodd;clip-rule:evenodd;fill:#FEFFFE;enable-background:new    ;}
	.st26{opacity:0.901;fill-rule:evenodd;clip-rule:evenodd;fill:#FEFFFE;enable-background:new    ;}
	.st27{opacity:0.892;fill-rule:evenodd;clip-rule:evenodd;fill:#FEFFFE;enable-background:new    ;}
	.st28{opacity:0.917;fill-rule:evenodd;clip-rule:evenodd;fill:#FEFFFE;enable-background:new    ;}
</style>
<g>
	<g>
		<path class="st0" d="M34.1,5.1c2,0.8,3.7,1.9,5.2,3.4c6,6.4,7.6,13.8,4.8,22.2c-2.3,5.6-6.4,9.5-12.1,11.6c-1.4,0.5-2.9,1-4.4,1.2
			c-0.4,0.1-0.9,0.1-1.3,0c2-1.3,3.7-2.9,5.3-4.7c1-1.5,1.8-3,2.3-4.8c0.3-2,0.2-4-0.3-5.9c-0.7-1.7-1.4-3.4-2.1-5.1
			c-0.2-1.3,0-2.5,0.8-3.6c-2.1-1-4.1-0.8-6,0.6c-0.8,1-1.3,2.2-1.3,3.5c-0.1,0.1-0.1,0.1-0.2,0.2c-0.6-0.4-1-1-1.1-1.8
			c-0.4-2.6,0.4-4.7,2.6-6.3c1.6-1.1,3.2-2.2,4.7-3.4C33,10.5,34.1,8.1,34.1,5.1z"/>
	</g>
	<g>
		<path class="st1" d="M13.4,6c0.1,0.1,0.2,0.2,0.2,0.4c-0.9,4.2-0.1,8,2.4,11.5c0.9,1.1,1.9,2.1,2.8,3.2c1.5,1.4,3,3,4.3,4.6
			c3.3,4.2,4,8.9,2.1,13.9c-1.1,2.1-2.6,4-4.5,5.5c-1.8,1.4-3.6,2.8-5.3,4.2c-3.5,3.4-5.9,7.4-7.2,12.1c0.1,0.4,0.1,0.8,0.1,1.2
			c0,0.1-0.1,0.1-0.2,0.1c-0.3-0.4-0.6-0.8-0.7-1.2c-1.4-3.9-1.5-7.8-0.2-11.7C7.9,48,9,46.3,10.5,45c1.6-1.1,3.4-1.8,5.4-2.1
			c-1.2-0.5-2.5-1.1-3.7-1.7c-6.8-4.9-9.8-11.6-9.1-20.1C4.2,14.5,7.6,9.4,13.4,6z"/>
	</g>
	<g>
		<path class="st2" d="M99.8,19.2c1.4,0,2.9,0,4.3,0c0,1,0,1.9-0.1,2.9c-0.7,0.1-1.4,0.1-2.1,0.1c-0.7,0-1.4,0-2.1-0.1
			C99.8,21.1,99.8,20.1,99.8,19.2z"/>
	</g>
	<g>
		<path class="st3" d="M167.3,19.2c1.4,0,2.8,0,4.2,0c0,1,0,2,0,3c-1.4,0-2.8,0-4.2,0C167.3,21.2,167.3,20.2,167.3,19.2z"/>
	</g>
	<g>
		<path class="st4" d="M27.3,19.7c0.9,0.1,1.2,0.5,0.9,1.3c-0.4,0.5-0.8,0.5-1.3,0.2C26.5,20.6,26.6,20.1,27.3,19.7z"/>
	</g>
	<g>
		<path class="st5" d="M54.7,19.8c1.6,0,3.3,0,4.9,0.1c2,5.4,4,10.7,6,16.1c-1.5,0.1-3,0.1-4.4-0.1c-0.4-1-0.8-2-1.1-3.1
			c-2-0.1-3.9-0.1-5.9,0.1c-0.4,1-0.7,2-1.1,3.1c-1.4,0.1-2.9,0.1-4.3,0C50.7,30.6,52.7,25.2,54.7,19.8z M57,24.3
			c0.7,1.8,1.3,3.7,2,5.5c-1.3,0.1-2.6,0.1-3.9,0C55.8,28,56.4,26.1,57,24.3z"/>
	</g>
	<g>
		<path class="st6" d="M112.3,20.4c1.3,0,2.7,0,4,0c0,1.1,0,2.3,0,3.4c1.2,0,2.4,0,3.6,0.1c0.1,0.9,0.1,1.7,0.1,2.6
			c-1.2,0-2.4,0-3.7,0c0,2,0,3.9,0.1,5.9c0.1,0.6,0.4,1,1.1,1.2c0.8,0.1,1.5,0,2.2-0.3c0.1,0,0.2,0,0.3,0.1c0.1,0.9,0.1,1.7,0,2.6
			c-2.1,0.7-4.2,0.6-6.2-0.3c-0.8-0.6-1.3-1.4-1.4-2.4c-0.1-2.3-0.1-4.5-0.1-6.8c-0.6,0-1.1,0-1.7,0c0-0.9,0-1.7,0.1-2.6
			c0.5-0.1,1.1-0.1,1.6-0.1C112.3,22.7,112.3,21.5,112.3,20.4z"/>
	</g>
	<g>
		<path class="st5" d="M79,23.5c2-0.3,3.5,0.4,4.6,2c1-0.9,2.2-1.6,3.6-1.9c2.8-0.3,4.5,0.9,4.8,3.7c0.1,2.9,0.1,5.9,0.1,8.8
			c-1.3,0-2.7,0-4,0c0-2.7,0-5.5-0.2-8.2c-0.3-0.8-0.9-1.2-1.8-1.1c-0.7,0-1.4,0.3-1.9,0.7C84,30.3,84,33.2,84,36.1
			c-1.3,0-2.7,0-4,0c0-2.7,0-5.5-0.2-8.2c-0.3-0.8-0.9-1.2-1.8-1.1c-0.7,0-1.4,0.3-1.9,0.7C76,30.3,76,33.2,76,36.1
			c-1.3,0-2.7,0-4,0c0-4.1,0-8.2,0-12.2c1.3,0,2.7,0,4,0c0,0.4,0,0.8,0.1,1.2C76.9,24.3,77.9,23.8,79,23.5z"/>
	</g>
	<g>
		<path class="st7" d="M129.9,23.5c1.1,0,2.2,0,3.3,0.1c1.6,0,3,0.6,4.1,1.8c0.3,0.5,0.4,1,0.6,1.6c0.1,3,0.1,6.1,0.1,9.1
			c-1.3,0-2.7,0-4,0c0-0.4,0-0.7-0.1-1.1c-1.7,1.4-3.7,1.8-5.8,1.2c-1.9-0.9-2.7-2.4-2.3-4.5c0.4-1.3,1.2-2.2,2.5-2.7
			c1.8-0.6,3.7-0.8,5.7-0.8c0.1-0.9-0.3-1.4-1.1-1.6c-1.1-0.2-2.1-0.2-3.2-0.1c-1,0.3-1.9,0.5-2.9,0.7c0-1,0-2,0-3
			C127.8,23.8,128.9,23.7,129.9,23.5z M133.4,30.4c0.2,0,0.4,0,0.6,0c0,0.9,0,1.7-0.1,2.6c-1.3,0.9-2.6,1-3.9,0.2
			c-0.5-1.2-0.2-2,1.1-2.4C131.8,30.6,132.6,30.5,133.4,30.4z"/>
	</g>
	<g>
		<path class="st7" d="M182.9,23.5c1.6-0.1,3.2,0,4.8,0.3c2,0.4,3.1,1.6,3.3,3.6c0.1,2.9,0.1,5.8,0.1,8.7c-1.3,0-2.7,0-4,0
			c0-0.4,0-0.7-0.1-1.1c-1.7,1.4-3.6,1.8-5.8,1.2c-2.1-1.1-2.8-2.8-2.2-5.1c0.8-1.6,2.2-2.4,3.9-2.6c1.4-0.2,2.7-0.4,4.1-0.4
			c0-1.1-0.6-1.7-1.7-1.7c-0.9-0.1-1.8-0.1-2.7,0c-1,0.3-1.9,0.5-2.9,0.7c0-1,0-2,0-3C180.8,23.9,181.8,23.7,182.9,23.5z
			 M186.4,30.4c0.2,0,0.4,0,0.6,0c0,0.9,0,1.7-0.1,2.6c-1,0.7-2.1,0.9-3.3,0.6c-0.8-0.5-1-1.2-0.6-2.1c0.3-0.4,0.7-0.6,1.2-0.7
			C184.9,30.6,185.7,30.5,186.4,30.4z"/>
	</g>
	<g>
		<path class="st8" d="M203,23.5c2.1-0.2,4.1,0.1,6,0.8c0,1.1,0,2.1,0,3.2c-0.2,0-0.3,0-0.4-0.1c-1.7-1.2-3.6-1.5-5.7-1
			c-0.8,0.4-0.9,0.9-0.1,1.4c1.7,0.3,3.3,0.7,4.9,1.2c1.8,1.1,2.4,2.6,1.6,4.6c-1,1.6-2.5,2.5-4.4,2.6c-2.3,0.3-4.4,0-6.6-0.8
			c-0.2-1.1-0.3-2.2-0.2-3.4c0.2,0,0.4,0,0.6,0.1c1.8,1.3,3.9,1.8,6.1,1.3c0.6-0.2,0.8-0.6,0.6-1.2c-0.1-0.1-0.1-0.2-0.3-0.3
			c-1.2-0.3-2.4-0.6-3.6-0.8c-2.9-0.7-3.9-2.4-3.1-5.3C199.6,24.5,201.1,23.7,203,23.5z"/>
	</g>
	<g>
		<path class="st9" d="M100,23.8c1.3,0,2.6,0,3.9,0.1c0.1,4,0.1,8.1,0.1,12.1c-1.4,0-2.7,0-4.1,0C99.9,32,99.9,27.9,100,23.8z"/>
	</g>
	<g>
		<path class="st5" d="M145.8,23.8c1.3,0,2.7,0,4,0c-0.1,2.8,0,5.6,0.2,8.3c0.4,0.8,1,1.1,1.8,1c0.8,0,1.5-0.2,2.2-0.7
			c0.1-2.9,0.1-5.8,0.1-8.7c1.3,0,2.7,0,4,0c0,4.1,0,8.2,0,12.2c-1.3,0-2.7,0-4,0c0-0.4,0-0.8-0.1-1.2c-0.7,0.5-1.4,0.9-2.2,1.3
			c-1.3,0.4-2.5,0.4-3.8,0c-1.3-0.6-2.1-1.6-2.3-3.1C145.8,30,145.8,26.9,145.8,23.8z"/>
	</g>
	<g>
		<path class="st10" d="M165.3,23.8c2.1,0,4.2,0,6.2,0c0,4.5,0,9-0.1,13.5c-0.4,1.6-1.3,2.6-2.8,3.2c-1.6,0.3-3.2,0.3-4.8-0.1
			c-0.1-1-0.1-1.9-0.1-2.9c0.8,0.2,1.7,0.2,2.6,0.2c0.6-0.1,0.9-0.5,1.1-1.1c0.2-3.4,0.2-6.7,0.2-10.1c-0.8,0-1.6,0-2.3,0
			C165.2,25.6,165.2,24.7,165.3,23.8z"/>
	</g>
	<g>
		<path class="st11" d="M44.7,44.3c0.5,0,0.9,0,1.4,0.1c0,0.6,0.1,1.3,0.2,1.9c0.9-0.6,1.7-0.6,2.5,0.1c0.1,0.2,0.2,0.4,0.2,0.7
			c0.1,1.1,0.1,2.1,0.1,3.2c-0.5,0-1,0-1.4,0c0-0.9,0-1.9-0.1-2.8c-0.1-0.4-0.3-0.5-0.7-0.4c-0.2,0-0.4,0-0.6,0.1
			c-0.1,1-0.1,2.1-0.1,3.1c-0.5,0-1,0-1.4,0C44.7,48.3,44.7,46.3,44.7,44.3z"/>
	</g>
	<g>
		<path class="st12" d="M109,44.3c0.4,0,0.9,0,1.3,0c0,0.4,0,0.7,0,1.1c-0.5,0-1,0-1.4,0C108.9,45,108.9,44.6,109,44.3z"/>
	</g>
	<g>
		<path class="st13" d="M173.2,44.3c0.5,0,0.9,0,1.4,0.1c0.1,2,0.1,3.9,0.1,5.9c-0.5,0-1,0-1.4,0C173.2,48.3,173.2,46.3,173.2,44.3z
			"/>
	</g>
	<g>
		<path class="st12" d="M185.9,44.3c0.4,0,0.9,0,1.3,0.1c0.1,0.3,0.1,0.7,0.1,1.1c-0.5,0-1,0-1.4,0C185.9,45,185.9,44.7,185.9,44.3z
			"/>
	</g>
	<g>
		<path class="st14" d="M208.3,44.6c0.6,0,1.1,0,1.7,0c0,1.3-0.1,2.7-0.2,4c-0.4,0.1-0.8,0.1-1.2,0C208.5,47.3,208.4,46,208.3,44.6z
			"/>
	</g>
	<g>
		<path class="st15" d="M95.8,44.7c0.5,0,1,0,1.4,0c0,0.4,0,0.8,0,1.2c0.4,0,0.8,0,1.2,0.1c0.1,0.3,0.1,0.6,0,0.9
			C98.1,47,97.7,47,97.2,47c0,0.7,0,1.5,0.1,2.2c0.3,0.2,0.7,0.3,1.1,0.1c0.2,0.1,0.2,0.3,0.2,0.5c0,0.2,0,0.3-0.1,0.4
			c-0.5,0.2-1.1,0.2-1.7,0.1c-0.5-0.1-0.8-0.4-0.9-0.8c-0.1-0.9-0.1-1.7-0.1-2.6c-0.2,0-0.4,0-0.6,0c0-0.3,0-0.7,0-1
			c0.2,0,0.4,0,0.6,0C95.8,45.5,95.8,45.1,95.8,44.7z"/>
	</g>
	<g>
		<path class="st16" d="M105.1,44.7c0.5,0,1,0,1.4,0c0,0.4,0,0.8,0,1.2c0.4,0,0.9,0,1.3,0c0,0.3,0,0.7,0,1c-0.4,0-0.9,0-1.3,0
			c0,0.7,0,1.5,0.1,2.2c0.1,0.2,0.3,0.2,0.6,0.2c0.2,0,0.5-0.1,0.7-0.1c0,0.3,0,0.7,0,1c-0.6,0.1-1.2,0.1-1.8,0.1
			c-0.5-0.1-0.8-0.4-0.9-0.9c-0.1-0.8-0.1-1.6-0.1-2.4c-0.2,0-0.4,0-0.6,0c0-0.3,0-0.7,0-1c0.2,0,0.4,0,0.6,0
			C105.1,45.5,105.1,45.1,105.1,44.7z"/>
	</g>
	<g>
		<path class="st17" d="M151,44.7c0.4,0,0.9,0,1.3,0.1c0.1,0.4,0.1,0.8,0.1,1.2c0.4,0,0.8,0,1.2,0c0,0.3,0,0.7,0,1
			c-0.4,0-0.8,0-1.2,0c0,0.8,0,1.6,0.1,2.3c0.3,0.1,0.7,0.1,1,0c0.3,0.8,0,1.2-0.8,1.1c-0.6,0.1-1.1-0.1-1.6-0.6
			c-0.2-1-0.2-1.9-0.2-2.9c-0.2,0-0.4,0-0.6,0c0-0.3,0-0.7,0-1c0.2,0,0.4,0,0.6,0C151,45.5,151,45.1,151,44.7z"/>
	</g>
	<g>
		<path class="st15" d="M182.1,44.7c0.5,0,1,0,1.4,0c0,0.4,0,0.8,0,1.2c0.4,0,0.8,0,1.2,0.1c0.1,0.3,0.1,0.6,0,0.9
			c-0.4,0.1-0.8,0.1-1.2,0.1c0,0.7,0,1.5,0.1,2.2c0.3,0.2,0.7,0.3,1.1,0.1c0.2,0.1,0.2,0.3,0.2,0.5c0,0.2,0,0.3-0.1,0.4
			c-0.5,0.2-1.1,0.2-1.7,0.1c-0.5-0.1-0.8-0.4-0.9-0.8c-0.1-0.9-0.1-1.7-0.1-2.6c-0.2,0-0.4,0-0.6,0c0-0.3,0-0.7,0-1
			c0.2,0,0.4,0,0.6,0C182.1,45.5,182.1,45.1,182.1,44.7z"/>
	</g>
	<g>
		<path class="st14" d="M52,45.8c1.9-0.2,2.9,0.6,2.8,2.6c-1,0-2.1,0-3.1,0c0,0.4,0.2,0.8,0.6,0.9c0.8,0.2,1.6,0,2.3-0.4
			c0.1,0.4,0.1,0.7,0.1,1.1c-1.1,0.6-2.2,0.6-3.4,0.1c-1-0.8-1.3-1.7-0.8-2.9C50.7,46.5,51.2,46,52,45.8z M52.3,46.7
			c0.5,0,0.8,0.2,1,0.7c-0.6,0.1-1.1,0.1-1.7,0.1C51.7,47.1,51.9,46.8,52.3,46.7z"/>
	</g>
	<g>
		<path class="st18" d="M61.7,45.8c1.9-0.2,2.8,0.7,2.8,2.6c-1.1,0-2.2,0-3.2,0.1c0.1,0.4,0.3,0.7,0.7,0.8c0.5,0.1,1,0.1,1.4,0
			c0.3-0.1,0.7-0.3,1-0.4c0,0.4,0,0.8-0.1,1.2c-1,0.4-2.1,0.5-3.1,0.1c-0.9-0.4-1.3-1.1-1.3-2.1C59.9,47,60.5,46.2,61.7,45.8z
			 M61.9,46.7c0.6-0.1,0.9,0.2,1.1,0.7c-0.6,0.1-1.2,0.1-1.8,0C61.3,47.1,61.5,46.8,61.9,46.7z"/>
	</g>
	<g>
		<path class="st18" d="M70.1,45.8c1.9-0.2,2.8,0.7,2.8,2.6c-1.1,0-2.2,0-3.2,0.1c0.1,0.4,0.3,0.7,0.7,0.8c0.5,0.1,1,0.1,1.4,0
			c0.3-0.1,0.7-0.3,1-0.4c0,0.4,0,0.8-0.1,1.2c-1,0.4-2.1,0.5-3.1,0.1c-0.9-0.4-1.3-1.1-1.3-2.1C68.3,47,69,46.2,70.1,45.8z
			 M70.3,46.7c0.6-0.1,0.9,0.2,1.1,0.7c-0.6,0.1-1.2,0.1-1.8,0C69.8,47.1,70,46.8,70.3,46.7z"/>
	</g>
	<g>
		<path class="st19" d="M81.9,45.8c1.2-0.1,1.9,0.4,2.2,1.6c0.3,1.2-0.1,2.2-1.2,2.8c-0.6,0.2-1.2,0.2-1.8-0.1
			C81,50.7,81,51.3,81,51.8c-0.5,0-1,0-1.4,0c0-2,0-3.9,0-5.9c0.5,0,1,0,1.4,0c0,0.2,0,0.3,0.1,0.4C81.3,46.2,81.6,46,81.9,45.8z
			 M81.3,47c0.9-0.2,1.3,0.2,1.3,1.1c0,1.1-0.6,1.5-1.7,1.2c0-0.7,0-1.5,0-2.2C81.2,47.1,81.3,47.1,81.3,47z"/>
	</g>
	<g>
		<path class="st13" d="M86.8,45.8c2-0.3,2.9,0.6,2.8,2.6c-1,0-2.1,0-3.1,0c0,0.5,0.2,0.8,0.7,0.9c0.5,0.1,1,0.1,1.4,0
			c0.9-0.6,1.2-0.4,0.9,0.7c-1,0.5-2.1,0.5-3.2,0.2c-1.2-0.7-1.6-1.6-1.2-2.9C85.5,46.6,86,46.1,86.8,45.8z M87.1,46.7
			c0.6-0.1,1,0.2,1,0.8c-0.6,0-1.1,0-1.7-0.1C86.6,47.1,86.8,46.8,87.1,46.7z"/>
	</g>
	<g>
		<path class="st18" d="M92.4,45.8c0.7,0,1.4,0,2.1,0.3c0.1,0.4,0.1,0.8,0.1,1.3c-0.3-0.1-0.6-0.2-0.9-0.4c-1.1-0.3-1.6,0.1-1.7,1.2
			c0.1,1,0.6,1.4,1.6,1.2c0.3-0.1,0.6-0.2,0.8-0.5c0.2,0.4,0.2,0.9,0.2,1.3c-1.1,0.5-2.2,0.4-3.2-0.2c-1.2-1.3-1.2-2.6,0.1-3.8
			C91.8,46.1,92.1,46,92.4,45.8z"/>
	</g>
	<g>
		<path class="st20" d="M100.5,45.8c0.6,0,1.2,0,1.8,0.1c0.6,0.1,1,0.4,1.3,0.9c0.1,1.1,0.1,2.3,0.1,3.4c-0.5,0-1,0-1.4,0
			c0-0.1,0-0.2-0.1-0.3c-1,0.8-1.9,0.7-2.7-0.2c-0.3-1.3,0.2-2,1.5-2.2c0.4,0,0.7-0.1,1.1-0.1c0.2-0.3,0.1-0.5-0.2-0.6
			c-0.7-0.1-1.4,0-2.1,0.3c-0.2-0.4-0.2-0.7-0.1-1.1C100,46,100.2,45.9,100.5,45.8z M102,48.3c0.3,0.7,0.1,1.1-0.7,1.2
			c-0.7-0.1-0.8-0.4-0.4-0.9C101.3,48.5,101.7,48.4,102,48.3z"/>
	</g>
	<g>
		<path class="st17" d="M113.4,45.8c2.3-0.1,3.3,1,2.8,3.2c-0.4,1-1.2,1.4-2.2,1.4c-2.1-0.4-2.8-1.5-2.1-3.6
			C112.2,46.3,112.7,46,113.4,45.8z M113.6,46.8c0.5-0.1,0.9,0.1,1.2,0.6c0.1,0.5,0.1,1,0,1.6c-0.1,0.2-0.1,0.3-0.3,0.4
			c-0.3,0.1-0.7,0.1-1,0c-0.1-0.1-0.2-0.2-0.3-0.4c-0.1-0.5-0.1-1,0-1.6C113.3,47.2,113.4,47,113.6,46.8z"/>
	</g>
	<g>
		<path class="st19" d="M119.9,45.8c0.8-0.1,1.4,0.1,1.8,0.8c0.2,1.2,0.2,2.4,0.2,3.7c-0.5,0-1,0-1.4,0c0-0.9,0-1.9-0.1-2.8
			c-0.1-0.4-0.3-0.5-0.7-0.4c-0.2,0-0.4,0-0.6,0.1c-0.1,1-0.1,2.1-0.1,3.1c-0.5,0-1,0-1.4,0c0-1.4,0-2.9,0-4.3c0.4,0,0.9,0,1.3,0.1
			c0.1,0.1,0.1,0.2,0.2,0.3C119.4,46.1,119.7,46,119.9,45.8z"/>
	</g>
	<g>
		<path class="st21" d="M124.7,45.8c0.8-0.1,1.6,0,2.3,0.3c0.1,0.4,0.1,0.7-0.1,1.1c-0.6-0.4-1.3-0.5-2-0.4c-0.3,0.2-0.3,0.4,0,0.6
			c0.7,0.1,1.3,0.3,1.9,0.6c0.7,1.1,0.4,1.9-0.9,2.3c-0.9,0.2-1.9,0.1-2.8-0.2c0-0.4,0-0.8,0-1.2c0.6,0.3,1.2,0.5,1.8,0.6
			c0.2,0,0.5-0.1,0.7-0.2c0.1-0.1,0.1-0.3-0.1-0.4c-0.6-0.1-1.2-0.2-1.8-0.4c-0.9-0.7-0.9-1.5,0-2.2
			C124.1,46.1,124.4,45.9,124.7,45.8z"/>
	</g>
	<g>
		<path class="st22" d="M133.6,45.8c0.7-0.1,1.3,0.1,1.8,0.7c0.4-0.2,0.7-0.4,1.1-0.6c1-0.2,1.6,0.2,1.8,1.2
			c0.1,1.1,0.1,2.1,0.1,3.2c-0.5,0-1,0-1.4,0c0-1,0-1.9-0.1-2.9c-0.1-0.3-0.3-0.4-0.6-0.3c-0.2,0-0.4,0-0.6,0.1
			c-0.1,1-0.1,2.1-0.1,3.1c-0.5,0-1,0-1.4,0c0-0.9,0-1.8-0.1-2.7c0-0.4-0.2-0.6-0.6-0.6c-0.3,0-0.5,0.1-0.7,0.2c-0.1,1-0.1,2-0.1,3
			c-0.5,0-1,0-1.4,0c0-1.4,0-2.8,0.1-4.2c0.5-0.1,0.9-0.1,1.4-0.1c0,0.2,0,0.3,0.1,0.4C133,46.2,133.3,46,133.6,45.8z"/>
	</g>
	<g>
		<path class="st18" d="M141.4,45.8c1.9-0.2,2.8,0.7,2.8,2.6c-1.1,0-2.2,0-3.2,0.1c0.1,0.4,0.3,0.7,0.7,0.8c0.5,0.1,1,0.1,1.4,0
			c0.3-0.1,0.7-0.3,1-0.4c0,0.4,0,0.8-0.1,1.2c-1,0.4-2.1,0.5-3.1,0.1c-0.9-0.4-1.3-1.1-1.3-2.1C139.6,47,140.2,46.2,141.4,45.8z
			 M141.6,46.7c0.6-0.1,0.9,0.2,1.1,0.7c-0.6,0.1-1.2,0.1-1.8,0C141,47.1,141.3,46.8,141.6,46.7z"/>
	</g>
	<g>
		<path class="st23" d="M146.8,45.8c2-0.3,2.9,0.6,2.8,2.6c-1,0-2.1,0-3.1,0c0,0.5,0.2,0.8,0.7,0.9c0.8,0.2,1.5,0,2.2-0.4
			c0.1,0.4,0.1,0.8,0.1,1.2c-1.2,0.5-2.4,0.4-3.6-0.2c-0.9-0.8-1.1-1.7-0.7-2.8C145.6,46.5,146.1,46,146.8,45.8z M147.2,46.7
			c0.6-0.1,0.9,0.2,1,0.8c-0.6,0-1.1,0-1.7,0C146.6,47.1,146.8,46.9,147.2,46.7z"/>
	</g>
	<g>
		<path class="st21" d="M156,45.8c0.8-0.1,1.6,0,2.3,0.3c0.1,0.4,0.1,0.7-0.1,1.1c-0.6-0.4-1.3-0.5-2-0.4c-0.3,0.2-0.3,0.4,0,0.6
			c0.7,0.1,1.3,0.3,1.9,0.6c0.7,1.1,0.4,1.9-0.9,2.3c-0.9,0.2-1.9,0.1-2.8-0.2c0-0.4,0-0.8,0-1.2c0.6,0.3,1.2,0.5,1.8,0.6
			c0.2,0,0.5-0.1,0.7-0.2c0.1-0.1,0.1-0.3-0.1-0.4c-0.6-0.1-1.2-0.2-1.8-0.4c-0.9-0.7-0.9-1.5,0-2.2C155.4,46.1,155.7,45.9,156,45.8
			z"/>
	</g>
	<g>
		<path class="st21" d="M163.9,45.8c0.8-0.1,1.5,0,2.2,0.3c0.1,0.4,0.1,0.8,0,1.2c-0.7-0.4-1.4-0.5-2.1-0.3
			c-0.1,0.1-0.1,0.3-0.1,0.4c0.6,0.1,1.2,0.3,1.8,0.4c0.8,0.5,1,1.1,0.5,1.9c-0.6,0.5-1.3,0.8-2.1,0.8c-0.6,0-1.2-0.2-1.7-0.4
			c-0.1-0.4-0.1-0.7-0.1-1.1c0.5,0.2,1,0.4,1.6,0.5c0.3,0.1,0.7,0,1-0.1c0-0.2,0-0.3-0.1-0.5c-0.7-0.1-1.3-0.3-1.9-0.6
			c-0.7-0.7-0.7-1.4,0.1-2.1C163.3,46.1,163.6,45.9,163.9,45.8z"/>
	</g>
	<g>
		<path class="st17" d="M169,45.8c2.3-0.1,3.3,1,2.8,3.2c-0.4,1-1.2,1.4-2.2,1.4c-2.1-0.4-2.8-1.5-2.1-3.6
			C167.8,46.3,168.3,46,169,45.8z M169.2,46.8c0.5-0.1,0.9,0.1,1.2,0.6c0.1,0.5,0.1,1,0,1.6c-0.1,0.2-0.1,0.3-0.3,0.4
			c-0.3,0.1-0.7,0.1-1,0c-0.1-0.1-0.2-0.2-0.3-0.4c-0.1-0.5-0.1-1,0-1.6C168.9,47.2,169,47,169.2,46.8z"/>
	</g>
	<g>
		<path class="st19" d="M190.2,45.8c2.5-0.1,3.5,1,2.8,3.4c-0.7,1.1-1.7,1.4-2.9,1.1c-1-0.4-1.6-1.1-1.6-2.2
			C188.6,47,189.1,46.2,190.2,45.8z M190.5,46.8c0.6-0.1,1,0.1,1.2,0.7c0.1,0.4,0.1,0.9,0,1.3c-0.3,0.5-0.7,0.7-1.3,0.5
			c-0.5-0.6-0.6-1.3-0.3-2.1C190.2,47.1,190.4,46.9,190.5,46.8z"/>
	</g>
	<g>
		<path class="st24" d="M196.9,45.8c0.8-0.1,1.5,0.2,1.8,0.9c0.2,1.2,0.2,2.4,0.2,3.6c-0.5,0-1,0-1.4,0c0-1,0-2.1-0.2-3.1
			c-0.5-0.2-0.9-0.1-1.3,0.1c-0.1,1-0.1,2-0.1,3c-0.5,0-1,0-1.4,0c0-1.4,0-2.8,0.1-4.2c0.5-0.1,0.9-0.1,1.4-0.1c0,0.2,0,0.3,0.1,0.4
			C196.2,46.2,196.5,46,196.9,45.8z"/>
	</g>
	<g>
		<path class="st25" d="M201.5,45.8c0.8-0.1,1.6,0.1,2.4,0.3c0.1,0.3,0.1,0.7,0,1c0,0.1-0.1,0.1-0.2,0.1c-0.6-0.4-1.3-0.5-2-0.4
			c-0.3,0.2-0.3,0.4,0.1,0.6c0.7,0.1,1.3,0.3,1.9,0.6c0.6,1.1,0.3,1.9-0.9,2.3c-0.9,0.2-1.9,0.1-2.8-0.2c0-0.4,0-0.8,0.1-1.2
			c0.8,0.5,1.6,0.6,2.4,0.3c0.1-0.2,0-0.3-0.2-0.4c-0.7-0.1-1.4-0.3-2.1-0.7C199.9,47,200.3,46.2,201.5,45.8z"/>
	</g>
	<g>
		<path class="st26" d="M36.2,46.1c0.5-0.1,1-0.1,1.5,0c0.2,0.9,0.5,1.7,0.7,2.6c0.3-0.8,0.6-1.7,0.9-2.6c0.4-0.1,0.8-0.1,1.2-0.1
			c0.3,0.9,0.6,1.8,0.9,2.7c0.2-0.9,0.4-1.8,0.7-2.7c0.5-0.1,0.9-0.1,1.4-0.1c-0.4,1.4-0.8,2.9-1.2,4.3c-0.5,0-1,0-1.6-0.1
			c-0.3-0.9-0.5-1.7-0.8-2.6c-0.3,0.9-0.6,1.8-0.8,2.7c-0.5,0-1,0-1.6-0.1C37.1,48.8,36.6,47.4,36.2,46.1z"/>
	</g>
	<g>
		<path class="st22" d="M56,46c0.4,0,0.9,0,1.3,0.1c0.1,0.2,0.1,0.3,0.2,0.5c0.5-0.4,1-0.6,1.6-0.6c0,0.4,0,0.9,0,1.3
			c-0.6,0-1.1,0-1.7,0.1c0,1,0,1.9,0,2.9c-0.5,0-1,0-1.4,0C56,48.8,56,47.4,56,46z"/>
	</g>
	<g>
		<path class="st13" d="M73.6,46.1c0.5-0.1,1-0.1,1.6-0.1c0.3,0.4,0.6,0.8,0.9,1.2c0.3-0.4,0.6-0.7,0.8-1.2c0.5-0.1,1-0.1,1.6,0.1
			c-0.5,0.7-1,1.4-1.6,2.1c0.6,0.7,1.1,1.4,1.7,2.1c-0.6,0.1-1.1,0.1-1.7,0c-0.2-0.4-0.5-0.8-0.8-1.2c-0.3,0.4-0.6,0.7-0.8,1.1
			c-0.6,0.1-1.1,0.1-1.7,0.1c0.6-0.7,1.1-1.4,1.7-2.1C74.7,47.4,74.1,46.7,73.6,46.1z"/>
	</g>
	<g>
		<path class="st27" d="M108.9,46c0.5,0,1,0,1.4,0c0,1.4,0,2.9,0,4.3c-0.5,0-1,0-1.4,0C108.9,48.8,108.9,47.4,108.9,46z"/>
	</g>
	<g>
		<path class="st13" d="M176.2,46c0.4,0,0.9,0,1.3,0c0,1,0,2.1,0.2,3.1c0.4,0.3,0.8,0.3,1.3,0c0.1-1,0.1-2.1,0.1-3.1
			c0.5,0,0.9,0,1.4,0.1c0.1,1.4,0.1,2.8,0.1,4.2c-0.5,0-1,0-1.4,0c0-0.1,0-0.2-0.1-0.3c-0.9,0.8-1.8,0.7-2.6-0.1
			C176.1,48.6,176,47.3,176.2,46z"/>
	</g>
	<g>
		<path class="st27" d="M185.9,46c0.5,0,1,0,1.4,0c0,1.4,0,2.9,0,4.3c-0.5,0-1,0-1.4,0C185.9,48.8,185.9,47.4,185.9,46z"/>
	</g>
	<g>
		<path class="st28" d="M208.4,49.3c0.5,0,1,0,1.6,0c0,0.3,0,0.7,0,1c-0.5,0-1,0-1.6,0C208.4,50,208.4,49.6,208.4,49.3z"/>
	</g>
</g>
</svg>
